<svg xmlns="http://www.w3.org/2000/svg" xmlns:xlink="http://www.w3.org/1999/xlink" id="World-Layer_1" style="enable-background:new -948.2 515.6 50 50" xml:space="preserve" viewBox="-948.2 515.6 50 50" version="1.1" y="0px" x="0px" width="32" height="32"><style type="text/css">	.st0{fill:#12BC99;}</style><g id="World-XMLID_2_">	<path class="st0" d="m-908 542.2c0 2.4-0.7 4.4-2 6s-3.1 2.4-5.3 2.4c-2 0-3.6-0.7-4.9-2s-2.3-2.9-3.1-4.8c-0.8 1.9-1.8 3.4-3.1 4.8s-2.9 2-4.9 2c-2.2 0-4-0.8-5.3-2.4s-2-3.6-2-6v-1.3c0-2.4 0.7-4.4 2-6s3.1-2.4 5.3-2.4c2 0 3.6 0.7 4.9 2s2.3 2.9 3.1 4.8c0.8-1.8 1.8-3.4 3.1-4.8 1.3-1.3 2.9-2 4.9-2 2.2 0 4 0.8 5.3 2.4s2 3.6 2 6v1.3zm-28.6 0c0 1.9 0.5 3.6 1.4 4.8 0.9 1.3 2.3 1.9 4 1.9 2 0 3.5-0.9 4.7-2.6s1.9-3.2 2.2-4.5v-0.7c-0.4-1.3-1.1-2.8-2.3-4.5-1.1-1.7-2.7-2.6-4.7-2.6-1.7 0-3.1 0.6-4 1.9s-1.4 2.9-1.4 4.8v1.5zm26.7-1.3c0-1.9-0.5-3.5-1.4-4.8s-2.2-2-4-2c-2 0-3.6 0.9-4.7 2.6-1.2 1.7-1.9 3.2-2.2 4.4v0.7c0.3 1.2 1 2.7 2.2 4.4s2.7 2.6 4.7 2.6c1.7 0 3.1-0.6 4-1.9s1.4-2.9 1.4-4.8v-1.2z"/></g></svg>