<?xml version="1.0" encoding="utf-8"?>
<!-- Generator: Adobe Illustrator 19.0.0, SVG Export Plug-In . SVG Version: 6.00 Build 0)  -->
<svg version="1.1" id="Layer_1" xmlns="http://www.w3.org/2000/svg" xmlns:xlink="http://www.w3.org/1999/xlink" x="0px" y="0px"
	 viewBox="-948.2 515.6 50 50" style="enable-background:new -948.2 515.6 50 50;" xml:space="preserve">
<style type="text/css">
	.st0{clip-path:url(#XMLID_2_);fill:#F15E0C;}
	.st1{clip-path:url(#XMLID_31_);fill:#12C5A2;}
	.st2{clip-path:url(#XMLID_32_);fill:#12C5A2;}
	.st3{clip-path:url(#XMLID_33_);fill:#EB008B;}
	.st4{clip-path:url(#XMLID_34_);fill:#EB008B;}
	.st5{clip-path:url(#XMLID_35_);fill:#F15E0C;}
</style>
<g id="XMLID_27_">
	<defs>
		<path id="XMLID_28_" d="M-948,533l1.1-2h4.2v19h-2.1V533H-948z"/>
	</defs>
	<clipPath id="XMLID_2_">
		<use xlink:href="#XMLID_28_"  style="overflow:visible;"/>
	</clipPath>
	<path id="XMLID_30_" class="st0" d="M-933.7,524c-0.2,0.5-15.6,22.3-15.6,22.3l-8.9-8.7l6.7-15L-933.7,524z"/>
</g>
<g id="XMLID_23_">
	<defs>
		<path id="XMLID_24_" d="M-948,533l1.1-2h4.2v19h-2.1V533H-948z"/>
	</defs>
	<clipPath id="XMLID_31_">
		<use xlink:href="#XMLID_24_"  style="overflow:visible;"/>
	</clipPath>
	<path id="XMLID_26_" class="st1" d="M-933.7,524c-0.2,0.5-15.6,22.3-15.6,22.3l10.8,14.5l21.1-36.7H-933.7z"/>
</g>
<g id="XMLID_18_">
	<defs>
		<path id="XMLID_19_" d="M-920.1,540.6c0,5.5-4.5,9.8-9.9,9.8c-5.4,0-9.9-4.3-9.9-9.8c0-5.5,4.5-9.9,9.9-9.9
			C-924.6,530.7-920.1,535.2-920.1,540.6z M-937.8,540.6c0,4.3,3.5,7.9,7.8,7.9c4.3,0,7.8-3.6,7.8-7.9c0-4.3-3.4-7.9-7.8-7.9
			C-934.4,532.7-937.8,536.3-937.8,540.6z"/>
	</defs>
	<clipPath id="XMLID_32_">
		<use xlink:href="#XMLID_19_"  style="overflow:visible;"/>
	</clipPath>
	<path id="XMLID_22_" class="st2" d="M-933.7,524c-0.2,0.5-15.6,22.3-15.6,22.3l10.8,14.5l21.1-36.7H-933.7z"/>
</g>
<g id="XMLID_13_">
	<defs>
		<path id="XMLID_14_" d="M-920.1,540.6c0,5.5-4.5,9.8-9.9,9.8c-5.4,0-9.9-4.3-9.9-9.8c0-5.5,4.5-9.9,9.9-9.9
			C-924.6,530.7-920.1,535.2-920.1,540.6z M-937.8,540.6c0,4.3,3.5,7.9,7.8,7.9c4.3,0,7.8-3.6,7.8-7.9c0-4.3-3.4-7.9-7.8-7.9
			C-934.4,532.7-937.8,536.3-937.8,540.6z"/>
	</defs>
	<clipPath id="XMLID_33_">
		<use xlink:href="#XMLID_14_"  style="overflow:visible;"/>
	</clipPath>
	<path id="XMLID_17_" class="st3" d="M-901,526.3c-0.2,0.5-15.1,34.5-15.1,34.5h-22.5l21.1-36.7L-901,526.3z"/>
</g>
<g id="XMLID_8_">
	<defs>
		<path id="XMLID_9_" d="M-898.3,540.6c0,5.5-4.5,9.8-9.9,9.8c-5.4,0-9.9-4.3-9.9-9.8c0-5.5,4.5-9.9,9.9-9.9
			C-902.8,530.7-898.3,535.2-898.3,540.6z M-916,540.6c0,4.3,3.5,7.9,7.8,7.9c4.3,0,7.8-3.6,7.8-7.9c0-4.3-3.4-7.9-7.8-7.9
			C-912.6,532.7-916,536.3-916,540.6z"/>
	</defs>
	<clipPath id="XMLID_34_">
		<use xlink:href="#XMLID_9_"  style="overflow:visible;"/>
	</clipPath>
	<path id="XMLID_12_" class="st4" d="M-901,526.3c-0.2,0.5-15.1,34.5-15.1,34.5h-22.5l21.1-36.7L-901,526.3z"/>
</g>
<g id="XMLID_3_">
	<defs>
		<path id="XMLID_4_" d="M-898.3,540.6c0,5.5-4.5,9.8-9.9,9.8c-5.4,0-9.9-4.3-9.9-9.8c0-5.5,4.5-9.9,9.9-9.9
			C-902.8,530.7-898.3,535.2-898.3,540.6z M-916,540.6c0,4.3,3.5,7.9,7.8,7.9c4.3,0,7.8-3.6,7.8-7.9c0-4.3-3.4-7.9-7.8-7.9
			C-912.6,532.7-916,536.3-916,540.6z"/>
	</defs>
	<clipPath id="XMLID_35_">
		<use xlink:href="#XMLID_4_"  style="overflow:visible;"/>
	</clipPath>
	<path id="XMLID_7_" class="st5" d="M-901,526.3c-0.2,0.5-15.1,34.5-15.1,34.5l21.5-0.6l7.9-33.2L-901,526.3z"/>
</g>
</svg>
